# xmcd
#
# Track frame offsets:
# 183
# 14268
# 32200
# 48200
# 61355
# 76938
# 89483
# 102908
# 117285
# 130618
# 144233
# 155568
# 173558
# 188063
# 200628
# 216668
# 231325
# 245633
#
# Disc length: 3474 seconds
#
#
# Revision: 1
# Processed by: cddbd v1.5.1PL0 Copyright (c) Steve Scherf et al.
# Submitted via: FreeRIP 2.93 
#
DISCID=f90d9012
DTITLE=Truckstop - Ich möcht' so gern Dave Dudley hör'n
DYEAR=1900
DGENRE=Country
TTITLE0=Das gibt's doch nur in Dallas
TTITLE1=Meine Tür steht immer offen
TTITLE2=Ich möcht' so gern Dave Dudley hör'n
TTITLE3=Die Frau mit dem Gurt
TTITLE4=Jeden Tag in einer ander'n Stadt
TTITLE5=Der wilde, wilde Westen
TTITLE6=Take It Easy, altes Haus
TTITLE7=Du bist immer auf Achse
TTITLE8=Arizona, Arizona
TTITLE9=Tausend Meilen
TTITLE10=Kein Bier, kein Wein, kein Nikotin
TTITLE11=Kleine Cowboys werden groß
TTITLE12=Mein Stiefel kommt in'n Himmel
TTITLE13=Wild West Cowboys
TTITLE14=Old Texas Town, die Westernstadt
TTITLE15=Louisiana Ladys
TTITLE16=Die Lady und der Tramp
TTITLE17=Sweet Tequila
EXTD=
EXTT0=
EXTT1=
EXTT2=
EXTT3=
EXTT4=
EXTT5=
EXTT6=
EXTT7=
EXTT8=
EXTT9=
EXTT10=
EXTT11=
EXTT12=
EXTT13=
EXTT14=
EXTT15=
EXTT16=
EXTT17=
PLAYORDER=
